<?xml version="1.0" encoding="UTF-8"?>
<svg id="Calque_2" data-name="Calque 2" xmlns="http://www.w3.org/2000/svg" viewBox="0 0 43.81 54.37">
  <defs>
    <style>
      .cls-1 {
        fill: #156635;
      }

      .cls-2 {
        fill: #d8125a;
      }
    </style>
  </defs>
  <g id="Calque_1-2" data-name="Calque 1">
    <path class="cls-2" d="M26.23.3c5.21-1.03,8.87.86,10.55,1.87,1.5.9,3.72,2.74,5.26,5.57.79,1.44,1.76,3.91,1.76,6.98-.02,18.34-16.18,33.86-16.18,33.86,0,0,5.8-5.35,3.41-14.41-1.05-3.99-2.55-5.99-6.63-7.89-.97-.45-1.97-.69-3.6-1.86-2.89-2.1-4.73-5.73-5.19-8.74C14.37,7.51,19.69,1.59,26.23.3Z"/>
    <path class="cls-1" d="M15.93,54.3c-.22-.26-.32-.4-.53-.71-9.28-13.68-6.38-27.94-5.91-30.48-.23,2.49-.82,16.66,9.71,29.48.24.3.46.53.71.78,5.8-2.53,8.44-7.49,8.76-12.6.23-3.65-.81-7.96-3.5-10.44-1.46-1.34-3.6-1.83-6.21-3.72-1.87-1.35-5.35-4.66-6.18-8.97-1.58-8.21,4.13-12.73,4.13-12.73C16.93,4.91,2.97,15.29.17,37.05c-.36,2.84-.1,5.23.3,6.56.86,2.86,2.23,4.86,3.43,6.1,5.43,5.57,12.03,4.58,12.03,4.58Z"/>
  </g>
</svg>